<?xml version="1.0" encoding="UTF-8"?>
<svg id="Layer_1" data-name="Layer 1" xmlns="http://www.w3.org/2000/svg" viewBox="0 0 792.02 1086.15">
  <defs>
    <style>
      .cls-1 {
        font-family: Poppins-Bold, Poppins;
        font-size: 127.89px;
        font-weight: 700;
      }

      .cls-1, .cls-2, .cls-3 {
        fill: #2f2d5d;
      }

      .cls-4 {
        fill: #29abe2;
      }

      .cls-4, .cls-2 {
        stroke-width: 0px;
      }

      .cls-3 {
        font-family: Poppins-Medium, Poppins;
        font-size: 119.9px;
        font-weight: 500;
        letter-spacing: .12em;
      }
    </style>
  </defs>
  <path class="cls-2" d="M423.06,238.37l-195.91,503.68H10L306.46,0h209.32l40.85,112.76,121.28,335.27c-37.64-51.39-98.45-84.77-166.87-84.77-8.94,0-17.81.56-26.47,1.75-6,.77-11.94,1.82-17.73,3.08l-43.77-129.73Z"/>
  <path class="cls-2" d="M784.3,742.04h-158.42c55.44-37.08,92.02-100.33,92.02-171.96,0-4.27-.13-8.52-.41-12.71l66.81,184.67Z"/>
  <path class="cls-4" d="M515.56,735.06c-95.15,0-172.56-77.41-172.56-172.57s77.41-172.57,172.56-172.57,172.57,77.41,172.57,172.57-77.41,172.57-172.57,172.57M525.85,631.14c-.65,0-1.27.25-1.74.7-.48.47-.75,1.11-.75,1.79v82.14c0,.75.34,1.47.93,1.95.45.35,1,.54,1.56.54.19,0,.37-.02.55-.06,26.26-5.98,50.34-34.06,64.43-75.15.22-.66.16-1.38-.17-2-.33-.61-.9-1.05-1.57-1.23-19.71-5.07-40.96-7.98-63.17-8.68h-.08M505.2,631.14c-22.21.7-43.46,3.63-63.17,8.69-.67.18-1.24.62-1.57,1.23-.33.62-.39,1.34-.17,2,14.1,41.07,38.18,69.16,64.42,75.14.19.04.37.06.56.06.56,0,1.11-.19,1.55-.54.6-.48.94-1.2.94-1.95v-82.14c0-.67-.27-1.32-.76-1.79-.46-.45-1.08-.7-1.73-.7h-.08M422.61,645.9c-.29,0-.57.05-.85.15-9.85,3.57-18.86,7.69-26.78,12.28-.64.37-1.08,1-1.21,1.72-.13.72.06,1.46.53,2.02,15.1,18.35,34.51,33.29,56.12,43.19.34.16.69.23,1.04.23.75,0,1.49-.34,1.97-.97.71-.91.7-2.2-.03-3.1-11.73-14.43-21.3-32.53-28.43-53.82-.22-.64-.68-1.16-1.28-1.45-.35-.17-.72-.25-1.09-.25M608.52,645.88c-.37,0-.74.08-1.08.24-.61.3-1.07.82-1.28,1.46-7.13,21.29-16.7,39.41-28.44,53.84-.73.9-.74,2.19-.04,3.1.49.63,1.22.97,1.98.97.35,0,.7-.07,1.04-.23,21.61-9.9,41.01-24.84,56.11-43.18.47-.57.66-1.31.53-2.03-.13-.72-.57-1.35-1.2-1.71-8-4.64-17.01-8.78-26.78-12.31-.27-.1-.56-.15-.85-.15M621.59,570.28c-1.35,0-2.45,1.07-2.49,2.41-.65,19.16-3.12,37.8-7.35,55.36-.3,1.24.39,2.51,1.59,2.94,11.99,4.24,22.85,9.23,32.3,14.85.4.24.83.35,1.27.35.83,0,1.65-.42,2.12-1.18,13.45-21.67,21.44-46.59,23.13-72.07.04-.69-.2-1.37-.67-1.87s-1.13-.79-1.82-.79h-48.08ZM361.47,570.28c-.69,0-1.35.29-1.83.79-.46.5-.71,1.18-.66,1.87,1.68,25.47,9.68,50.39,23.12,72.06.47.76,1.29,1.18,2.12,1.18.44,0,.87-.11,1.27-.35,9.44-5.6,20.31-10.59,32.31-14.84,1.2-.43,1.89-1.69,1.59-2.93-4.24-17.57-6.71-36.2-7.35-55.37-.04-1.34-1.15-2.41-2.49-2.41h-48.08ZM430.16,570.28c-.68,0-1.33.28-1.8.77-.47.48-.72,1.14-.7,1.82.67,17.33,2.98,34.24,6.86,50.28.15.65.57,1.21,1.14,1.55.39.24.83.36,1.28.36.21,0,.42-.03.63-.08,21.27-5.55,44.08-8.72,67.78-9.43,1.35-.04,2.42-1.14,2.42-2.49v-40.28c0-1.38-1.12-2.5-2.49-2.5h-75.13ZM525.85,570.28c-1.38,0-2.49,1.12-2.49,2.5v40.28c0,1.35,1.07,2.45,2.42,2.49,23.71.71,46.52,3.88,67.78,9.42.21.05.42.08.63.08.45,0,.89-.12,1.28-.36.58-.34.99-.9,1.15-1.55,3.88-16.03,6.18-32.94,6.84-50.27.03-.68-.22-1.34-.69-1.82-.47-.49-1.12-.77-1.8-.77h-75.13ZM646.91,478.79c-.44,0-.87.11-1.27.35-9.44,5.6-20.3,10.6-32.3,14.85-1.2.43-1.89,1.7-1.59,2.94,4.24,17.57,6.7,36.19,7.35,55.36.04,1.34,1.14,2.41,2.49,2.41h48.08c.69,0,1.35-.29,1.82-.79.47-.51.71-1.18.67-1.87-1.69-25.48-9.68-50.4-23.13-72.07-.47-.76-1.29-1.18-2.12-1.18M594.2,499.93c-.21,0-.42.03-.63.08-21.25,5.54-44.06,8.71-67.78,9.42-1.35.04-2.42,1.15-2.42,2.49v40.28c0,1.38,1.11,2.5,2.49,2.5h75.13c.68,0,1.33-.28,1.8-.77s.72-1.15.69-1.82c-.67-17.33-2.97-34.24-6.84-50.27-.16-.65-.57-1.21-1.15-1.55-.39-.24-.83-.36-1.28-.36M436.94,499.92c-.45,0-.89.12-1.28.36-.57.34-.99.9-1.14,1.55-3.89,16.04-6.19,32.95-6.86,50.28-.02.67.23,1.33.7,1.82s1.12.77,1.8.77h75.13c1.37,0,2.49-1.12,2.49-2.5v-40.28c0-1.34-1.07-2.45-2.42-2.49-23.7-.71-46.51-3.89-67.78-9.43-.21-.05-.42-.08-.63-.08M384.22,478.8c-.83,0-1.65.42-2.12,1.18-13.44,21.67-21.44,46.59-23.12,72.06-.05.69.2,1.36.66,1.87.48.5,1.14.79,1.83.79h48.08c1.34,0,2.45-1.07,2.49-2.41.64-19.17,3.12-37.8,7.35-55.36.3-1.25-.39-2.51-1.59-2.94-12.02-4.25-22.88-9.24-32.31-14.84-.4-.24-.83-.35-1.27-.35M525.85,406.72c-.56,0-1.11.19-1.56.54-.59.48-.93,1.2-.93,1.95v82.14c0,.68.27,1.32.75,1.79.47.45,1.09.7,1.74.7h.08c22.21-.7,43.47-3.62,63.17-8.68.67-.18,1.24-.62,1.57-1.23.33-.62.39-1.34.17-2-14.09-41.08-38.18-69.17-64.43-75.15-.18-.04-.36-.06-.55-.06M505.28,406.72c-.19,0-.37.02-.56.06-26.25,5.98-50.33,34.06-64.42,75.14-.22.66-.16,1.38.17,2,.33.61.9,1.05,1.57,1.23,19.71,5.07,40.96,7.99,63.17,8.69h.08c.65,0,1.27-.25,1.73-.7.49-.47.76-1.11.76-1.79v-82.14c0-.75-.34-1.47-.94-1.95-.44-.35-.99-.54-1.55-.54M579.67,419.49c-.76,0-1.49.34-1.98.97-.7.91-.69,2.2.04,3.1,11.74,14.44,21.3,32.55,28.44,53.84.21.64.67,1.16,1.28,1.45.34.17.71.25,1.08.25.29,0,.58-.05.85-.15,9.79-3.54,18.8-7.68,26.78-12.31.63-.36,1.07-.99,1.2-1.71s-.06-1.46-.53-2.03c-15.1-18.35-34.5-33.29-56.11-43.18-.34-.16-.69-.23-1.04-.23M451.47,419.49c-.35,0-.7.07-1.04.23-21.61,9.9-41.03,24.83-56.12,43.19-.47.56-.66,1.3-.53,2.02s.57,1.35,1.21,1.72c7.9,4.58,16.92,8.71,26.78,12.28.28.1.56.15.85.15.37,0,.74-.08,1.09-.25.6-.29,1.06-.81,1.28-1.45,7.12-21.29,16.7-39.4,28.43-53.82.73-.9.74-2.19.03-3.1-.48-.63-1.22-.97-1.97-.97"/>
  <text class="cls-1" transform="translate(0 895.51)"><tspan x="0" y="0">ASH GLOBAL</tspan></text>
  <text class="cls-3" transform="translate(0 1016.37)"><tspan x="0" y="0">INITIATIVES</tspan></text>
</svg>